<svg width="253" height="96" viewBox="0 0 253 96" fill="none" xmlns="http://www.w3.org/2000/svg">
<path d="M31.0541 21.88C37.1767 21.88 41.9874 23.356 45.4861 26.308C48.9847 29.26 50.7341 33.2233 50.7341 38.198C50.7341 43.5007 48.9847 47.5733 45.4861 50.416C41.9874 53.204 37.2041 54.598 31.1361 54.598L29.9881 55.254H18.3441V76H7.19208V21.88H31.0541ZM29.7421 46.644C32.9127 46.644 35.2634 46.0153 36.7941 44.758C38.3794 43.446 39.1721 41.4507 39.1721 38.772C39.1721 36.0933 38.3794 34.1253 36.7941 32.868C35.2634 31.556 32.9127 30.9 29.7421 30.9H18.3441V46.644H29.7421ZM36.3841 49.022L53.9321 76H41.2221L26.7081 52.302L36.3841 49.022ZM73.4417 76.82C69.123 76.82 65.351 75.9727 62.1257 74.278C58.955 72.5833 56.495 70.1507 54.7457 66.98C52.9963 63.8093 52.1217 59.9827 52.1217 55.5C52.1217 51.0173 52.9963 47.1907 54.7457 44.02C56.495 40.8493 58.9277 38.4167 62.0437 36.722C65.2143 35.0273 68.8223 34.18 72.8677 34.18C77.0223 34.18 80.5483 35.0273 83.4457 36.722C86.343 38.362 88.557 40.6307 90.0877 43.528C91.6183 46.3707 92.3837 49.6233 92.3837 53.286C92.3837 54.3793 92.3563 55.418 92.3017 56.402C92.247 57.386 92.165 58.2607 92.0557 59.026H59.3377V51.236H87.1357L81.7237 53.204C81.7237 49.76 80.931 47.1087 79.3457 45.25C77.815 43.3913 75.6283 42.462 72.7857 42.462C70.7083 42.462 68.9043 42.954 67.3737 43.938C65.8977 44.922 64.777 46.398 64.0117 48.366C63.2463 50.2793 62.8637 52.712 62.8637 55.664C62.8637 58.5613 63.2737 60.9667 64.0937 62.88C64.9683 64.7387 66.171 66.1327 67.7017 67.062C69.287 67.9913 71.173 68.456 73.3597 68.456C75.765 68.456 77.7057 67.9913 79.1817 67.062C80.6577 66.1327 81.8057 64.848 82.6257 63.208L91.5637 66.652C90.689 68.784 89.3497 70.6153 87.5457 72.146C85.7963 73.6767 83.6917 74.852 81.2317 75.672C78.8263 76.4373 76.2297 76.82 73.4417 76.82Z" fill="#090909"/>
<path d="M161.483 22.6875C160.177 21.0035 157.689 19 153.258 19C147.793 19 140.865 22.5953 134.724 28.6182C133.806 29.5063 132.967 30.4159 132.172 31.3347V25.1458C132.172 24.1678 131.785 23.2299 131.096 22.5384C130.408 21.8468 129.474 21.4583 128.5 21.4583C127.526 21.4583 126.592 21.8468 125.903 22.5384C125.215 23.2299 124.828 24.1678 124.828 25.1458V31.3347C124.032 30.4128 123.181 29.4909 122.276 28.6182C116.134 22.5953 109.222 19 103.741 19C99.3105 19 96.8227 21.0097 95.5161 22.6875C91.4739 27.9115 93.0039 36.7953 95.2316 45.6299C96.991 52.587 100.678 55.7705 104.069 57.2117C103.075 59.4597 102.655 61.9212 102.847 64.3733C103.039 66.8254 103.837 69.1906 105.169 71.2548C106.501 73.3189 108.325 75.0168 110.475 76.1946C112.626 77.3724 115.034 77.9929 117.484 78C119.569 78.0015 121.63 77.5559 123.53 76.6932C125.429 75.8305 127.124 74.5704 128.5 72.9973C130.473 75.2438 133.08 76.8338 135.974 77.556C138.869 78.2781 141.914 78.0982 144.704 77.04C147.495 75.9819 149.898 74.0957 151.595 71.6324C153.292 69.169 154.202 66.2453 154.204 63.25C154.205 61.1705 153.774 59.1137 152.937 57.2117C156.327 55.7767 160.015 52.6023 161.774 45.6299C163.996 36.7953 165.526 27.9115 161.483 22.6875ZM117.484 70.625C115.536 70.625 113.668 69.848 112.291 68.4649C110.914 67.0818 110.14 65.206 110.14 63.25C110.147 61.4322 110.813 59.6792 112.013 58.3182C113.213 56.9571 114.865 56.0811 116.661 55.8535C117.629 55.7459 118.515 55.2565 119.124 54.4929C119.733 53.7293 120.014 52.7542 119.907 51.7819C119.8 50.8096 119.313 49.9199 118.552 49.3084C117.792 48.697 116.821 48.4139 115.853 48.5215C113.495 48.784 111.237 49.6205 109.274 50.9583C106.768 50.8692 103.766 49.4465 102.349 43.8169C100.082 34.8501 99.7328 29.2666 101.312 27.2231C101.492 26.9896 101.97 26.375 103.741 26.375C107.172 26.375 112.56 29.3957 117.147 33.8944C121.814 38.4731 124.828 43.6847 124.828 47.1694V63.25C124.828 65.206 124.054 67.0818 122.677 68.4649C121.299 69.848 119.432 70.625 117.484 70.625ZM154.647 43.8138C153.227 49.4434 150.226 50.8661 147.723 50.9583C145.759 49.6201 143.499 48.7846 141.141 48.5246C140.661 48.4713 140.176 48.5134 139.713 48.6484C139.25 48.7834 138.817 49.0088 138.441 49.3115C138.064 49.6143 137.751 49.9885 137.518 50.4129C137.286 50.8373 137.139 51.3035 137.086 51.7849C137.033 52.2664 137.075 52.7536 137.209 53.2187C137.344 53.6839 137.568 54.1179 137.87 54.496C138.171 54.8741 138.544 55.1888 138.966 55.4223C139.389 55.6557 139.853 55.8033 140.333 55.8566C142.129 56.0827 143.782 56.9577 144.983 58.3183C146.184 59.6788 146.851 61.4318 146.86 63.25C146.86 65.206 146.086 67.0818 144.709 68.4649C143.331 69.848 141.463 70.625 139.516 70.625C137.568 70.625 135.7 69.848 134.323 68.4649C132.945 67.0818 132.172 65.206 132.172 63.25V47.1694C132.172 43.6847 135.186 38.4731 139.852 33.8944C144.439 29.3957 149.828 26.375 153.258 26.375C155.03 26.375 155.507 26.9896 155.688 27.2231C157.264 29.2635 156.918 34.847 154.65 43.8138H154.647Z" fill="#090909"/>
<path d="M184.928 76.82C180.609 76.82 176.837 75.9727 173.612 74.278C170.441 72.5833 167.981 70.1507 166.232 66.98C164.483 63.8093 163.608 59.9827 163.608 55.5C163.608 51.0173 164.483 47.1907 166.232 44.02C167.981 40.8493 170.414 38.4167 173.53 36.722C176.701 35.0273 180.309 34.18 184.354 34.18C188.509 34.18 192.035 35.0273 194.932 36.722C197.829 38.362 200.043 40.6307 201.574 43.528C203.105 46.3707 203.87 49.6233 203.87 53.286C203.87 54.3793 203.843 55.418 203.788 56.402C203.733 57.386 203.651 58.2607 203.542 59.026H170.824V51.236H198.622L193.21 53.204C193.21 49.76 192.417 47.1087 190.832 45.25C189.301 43.3913 187.115 42.462 184.272 42.462C182.195 42.462 180.391 42.954 178.86 43.938C177.384 44.922 176.263 46.398 175.498 48.366C174.733 50.2793 174.35 52.712 174.35 55.664C174.35 58.5613 174.76 60.9667 175.58 62.88C176.455 64.7387 177.657 66.1327 179.188 67.062C180.773 67.9913 182.659 68.456 184.846 68.456C187.251 68.456 189.192 67.9913 190.668 67.062C192.144 66.1327 193.292 64.848 194.112 63.208L203.05 66.652C202.175 68.784 200.836 70.6153 199.032 72.146C197.283 73.6767 195.178 74.852 192.718 75.672C190.313 76.4373 187.716 76.82 184.928 76.82ZM230.938 76.82C228.424 76.82 226.128 76.3007 224.05 75.262C222.028 74.1687 220.333 72.6927 218.966 70.834C217.654 68.9207 216.752 66.7887 216.26 64.438L217.408 62.962L216.752 76H206.83V17.042H218.064V46.562L216.998 44.84C217.873 41.7787 219.54 39.2367 222 37.214C224.46 35.1913 227.549 34.18 231.266 34.18C234.492 34.18 237.416 35.0273 240.04 36.722C242.664 38.4167 244.714 40.8493 246.19 44.02C247.721 47.1907 248.486 51.0447 248.486 55.582C248.486 60.01 247.721 63.8093 246.19 66.98C244.714 70.1507 242.637 72.5833 239.958 74.278C237.334 75.9727 234.328 76.82 230.938 76.82ZM227.576 68.21C230.583 68.21 232.934 67.144 234.628 65.012C236.378 62.8253 237.252 59.6547 237.252 55.5C237.252 51.3453 236.405 48.202 234.71 46.07C233.016 43.8833 230.665 42.79 227.658 42.79C225.69 42.79 223.996 43.3093 222.574 44.348C221.153 45.3867 220.032 46.8627 219.212 48.776C218.447 50.6893 218.064 52.958 218.064 55.582C218.064 58.2607 218.447 60.5567 219.212 62.47C220.032 64.3287 221.153 65.75 222.574 66.734C224.05 67.718 225.718 68.21 227.576 68.21Z" fill="#090909"/>
<path d="M243.996 19H242.816V14.3359H241.188V13.3633H245.629V14.3359H243.996V19ZM251.61 19H250.559V15.1953H250.528L248.997 18.9453H248.255L246.723 15.1953H246.692V19H245.641V13.3633H247.008L248.61 17.3594H248.641L250.243 13.3633H251.61V19Z" fill="#080808"/>
</svg>
